<mxfile host="65bd71144e">
    <diagram id="YF7XhDCpssPX3aJB71T2" name="Page-1">
        <mxGraphModel dx="1088" dy="538" grid="1" gridSize="10" guides="1" tooltips="1" connect="1" arrows="1" fold="1" page="1" pageScale="1" pageWidth="850" pageHeight="1100" math="0" shadow="0">
            <root>
                <mxCell id="0"/>
                <mxCell id="1" parent="0"/>
                <mxCell id="2" value="chat" style="shape=folder;fontStyle=1;spacingTop=10;tabWidth=40;tabHeight=14;tabPosition=left;html=1;fontSize=24;" parent="1" vertex="1">
                    <mxGeometry x="40" y="120" width="190" height="120" as="geometry"/>
                </mxCell>
                <mxCell id="3" value="messages" style="shape=folder;fontStyle=1;spacingTop=10;tabWidth=40;tabHeight=14;tabPosition=left;html=1;fontSize=24;" parent="1" vertex="1">
                    <mxGeometry x="300" y="120" width="200" height="120" as="geometry"/>
                </mxCell>
                <mxCell id="4" value="&lt;span style=&quot;font-size: 24px;&quot;&gt;&lt;i&gt;MONGO DB&lt;/i&gt;&lt;/span&gt;" style="text;html=1;align=center;verticalAlign=middle;resizable=0;points=[];autosize=1;strokeColor=none;fillColor=none;" parent="1" vertex="1">
                    <mxGeometry x="65" y="10" width="160" height="40" as="geometry"/>
                </mxCell>
                <mxCell id="8" value="user_id UUID " style="text;strokeColor=none;fillColor=none;align=left;verticalAlign=top;spacingLeft=4;spacingRight=4;overflow=hidden;rotatable=0;points=[[0,0.5],[1,0.5]];portConstraint=eastwest;" parent="1" vertex="1">
                    <mxGeometry x="40" y="250" width="160" height="26" as="geometry"/>
                </mxCell>
                <mxCell id="11" value="chat_id REF Schema" style="text;strokeColor=none;fillColor=none;align=left;verticalAlign=top;spacingLeft=4;spacingRight=4;overflow=hidden;rotatable=0;points=[[0,0.5],[1,0.5]];portConstraint=eastwest;" parent="1" vertex="1">
                    <mxGeometry x="320" y="250" width="160" height="26" as="geometry"/>
                </mxCell>
                <mxCell id="12" value="user_id UUID (owner) " style="text;strokeColor=none;fillColor=none;align=left;verticalAlign=top;spacingLeft=4;spacingRight=4;overflow=hidden;rotatable=0;points=[[0,0.5],[1,0.5]];portConstraint=eastwest;" parent="1" vertex="1">
                    <mxGeometry x="320" y="280" width="160" height="26" as="geometry"/>
                </mxCell>
                <mxCell id="13" value="images STR " style="text;strokeColor=none;fillColor=none;align=left;verticalAlign=top;spacingLeft=4;spacingRight=4;overflow=hidden;rotatable=0;points=[[0,0.5],[1,0.5]];portConstraint=eastwest;" parent="1" vertex="1">
                    <mxGeometry x="320" y="340" width="160" height="26" as="geometry"/>
                </mxCell>
                <mxCell id="14" value="content ENUM ( a definir )" style="text;strokeColor=none;fillColor=none;align=left;verticalAlign=top;spacingLeft=4;spacingRight=4;overflow=hidden;rotatable=0;points=[[0,0.5],[1,0.5]];portConstraint=eastwest;" parent="1" vertex="1">
                    <mxGeometry x="320" y="310" width="160" height="20" as="geometry"/>
                </mxCell>
                <mxCell id="15" value="videos STR" style="text;strokeColor=none;fillColor=none;align=left;verticalAlign=top;spacingLeft=4;spacingRight=4;overflow=hidden;rotatable=0;points=[[0,0.5],[1,0.5]];portConstraint=eastwest;" parent="1" vertex="1">
                    <mxGeometry x="320" y="370" width="160" height="26" as="geometry"/>
                </mxCell>
                <mxCell id="16" value="gifs STR" style="text;strokeColor=none;fillColor=none;align=left;verticalAlign=top;spacingLeft=4;spacingRight=4;overflow=hidden;rotatable=0;points=[[0,0.5],[1,0.5]];portConstraint=eastwest;" parent="1" vertex="1">
                    <mxGeometry x="320" y="400" width="160" height="26" as="geometry"/>
                </mxCell>
                <mxCell id="18" value="reaction [ { user_id, type } ]" style="text;strokeColor=none;fillColor=none;align=left;verticalAlign=top;spacingLeft=4;spacingRight=4;overflow=hidden;rotatable=0;points=[[0,0.5],[1,0.5]];portConstraint=eastwest;" parent="1" vertex="1">
                    <mxGeometry x="320" y="430" width="160" height="26" as="geometry"/>
                </mxCell>
                <mxCell id="23" value="comments" style="shape=folder;fontStyle=1;spacingTop=10;tabWidth=40;tabHeight=14;tabPosition=left;html=1;fontSize=24;" parent="1" vertex="1">
                    <mxGeometry x="560" y="120" width="200" height="120" as="geometry"/>
                </mxCell>
                <mxCell id="25" value="suscriber_id UUID" style="text;strokeColor=none;fillColor=none;align=left;verticalAlign=top;spacingLeft=4;spacingRight=4;overflow=hidden;rotatable=0;points=[[0,0.5],[1,0.5]];portConstraint=eastwest;" parent="1" vertex="1">
                    <mxGeometry x="560" y="254" width="160" height="26" as="geometry"/>
                </mxCell>
                <mxCell id="27" value="content ENUM ( a definir )" style="text;strokeColor=none;fillColor=none;align=left;verticalAlign=top;spacingLeft=4;spacingRight=4;overflow=hidden;rotatable=0;points=[[0,0.5],[1,0.5]];portConstraint=eastwest;" parent="1" vertex="1">
                    <mxGeometry x="560" y="280" width="160" height="20" as="geometry"/>
                </mxCell>
                <mxCell id="28" value="images STR " style="text;strokeColor=none;fillColor=none;align=left;verticalAlign=top;spacingLeft=4;spacingRight=4;overflow=hidden;rotatable=0;points=[[0,0.5],[1,0.5]];portConstraint=eastwest;" parent="1" vertex="1">
                    <mxGeometry x="560" y="314" width="160" height="26" as="geometry"/>
                </mxCell>
                <mxCell id="29" value="videos STR" style="text;strokeColor=none;fillColor=none;align=left;verticalAlign=top;spacingLeft=4;spacingRight=4;overflow=hidden;rotatable=0;points=[[0,0.5],[1,0.5]];portConstraint=eastwest;" parent="1" vertex="1">
                    <mxGeometry x="560" y="344" width="160" height="26" as="geometry"/>
                </mxCell>
                <mxCell id="30" value="gifs STR" style="text;strokeColor=none;fillColor=none;align=left;verticalAlign=top;spacingLeft=4;spacingRight=4;overflow=hidden;rotatable=0;points=[[0,0.5],[1,0.5]];portConstraint=eastwest;" parent="1" vertex="1">
                    <mxGeometry x="560" y="374" width="160" height="26" as="geometry"/>
                </mxCell>
                <mxCell id="31" value="reaction [  { user_id, type }  ]" style="text;strokeColor=none;fillColor=none;align=left;verticalAlign=top;spacingLeft=4;spacingRight=4;overflow=hidden;rotatable=0;points=[[0,0.5],[1,0.5]];portConstraint=eastwest;" parent="1" vertex="1">
                    <mxGeometry x="560" y="404" width="160" height="26" as="geometry"/>
                </mxCell>
            </root>
        </mxGraphModel>
    </diagram>
</mxfile>